<?xml version="1.0" standalone="no"?><!DOCTYPE svg PUBLIC "-//W3C//DTD SVG 1.1//EN" "http://www.w3.org/Graphics/SVG/1.1/DTD/svg11.dtd"><svg t="1489506964126" class="icon" style="" viewBox="0 0 1024 1024" version="1.1" xmlns="http://www.w3.org/2000/svg" p-id="1218" xmlns:xlink="http://www.w3.org/1999/xlink" width="200" height="200"><defs><style type="text/css"></style></defs><path d="M152.597333 726.826667c0-81.792 34.752-124.970667 102.4-143.552-10.709333-26.773333-16.064-46.506667-16.064-59.221334 0-47.082667 59.477333-105.408 104.405334-105.408 11.370667 0 24.746667 2.986667 40.149333 9.024-32.106667-91.690667-55.210667-161.28-69.269333-208.810666-18.346667-61.930667-42.901333-142.464 0-190.741334C330.965333 9.365333 353.386667 0 381.482667 0c48.213333 0 106.090667 98.709333 173.696 296.149333l17.066666 49.194667c25.6-64 104.170667-326.272 192.746667-326.272 26.773333 0 47.850667 9.045333 63.253333 27.093333 43.264 48.704 17.770667 120.789333 0 183.722667-14.08 48.853333-36.16 115.797333-66.261333 200.789333 38.144 9.386667 65.578667 27.456 82.304 54.208 18.090667 28.8 27.114667 73.301333 27.114667 133.546667 0 119.125333-35.477333 216.490667-106.410667 292.117333C692.693333 986.176 601.024 1024 489.92 1024c-137.216 0-257.706667-80.597333-311.232-189.738667-17.386667-36.138667-26.090667-71.957333-26.090667-107.413333z m65.258667-5.013334c0 41.941333 27.989333 92.565333 53.205333 126.506667 59.050667 76.330667 136.277333 109.44 226.88 109.44 86.336 0 158.954667-32.469333 217.856-97.408 58.24-64.234667 87.338667-145.557333 87.338667-243.946667 0-33.642667-0.085333-83.968-25.088-105.408-18.069333-15.402667-53.546667-28.8-106.432-40.149333-52.864-12.053333-109.077333-18.069333-168.661333-18.069333-23.018667 0-35.136 3.456-35.136 26.090666 0 27.434667 15.402667 46.848 46.186666 58.24 33.472 14.037333 88.682667 21.077333 165.653334 21.077334h28.096c15.744 0 29.717333 8.213333 34.133333 42.154666-28.842667 28.864-76.373333 32.746667-108.416 57.237334-26.773333 19.413333-48.192 42.496-64.256 69.269333-15.381333 26.090667-23.082667 50.858667-23.082667 74.282667 0 14.058667 3.349333 31.125333 10.026667 51.2 7.381333 22.08 11.050667 36.48 11.050667 43.157333-0.170667 6.229333-2.005333 10.56-9.536 13.568-31.125333 7.04-45.333333-8.213333-58.730667-33.642667-11.370667-21.418667-17.728-48.853333-19.072-82.325333-4.053333 1.365333-18.730667 1.024-23.082667 1.024 0.661333 3.328 1.002667 7.36 1.002667 12.032 0 20.074667-7.68 37.141333-23.104 51.2a77.802667 77.802667 0 0 1-54.186667 21.077333c-31.466667 0-63.253333-15.04-95.381333-45.162666-32.128-30.784-48.213333-60.906667-48.213333-90.346667 0-17.493333 7.488-26.56 19.093333-38.165333a1867.989333 1867.989333 0 0 1 34.133333 43.178666c28.117333 39.466667 53.546667 59.221333 76.288 59.221334 12.8 0 23.104-9.450667 23.104-16.064 0-5.333333-4.010667-15.061333-12.053333-29.098667-11.733333-22.016-58.069333-83.434667-82.325333-103.402667-10.026667-9.386667-17.386667-14.08-22.08-14.08-22.592 0-55.210667 29.013333-55.210667 77.312z m90.346667-191.744c0 8.704 5.354667 23.765333 16.064 45.184 19.733333 38.058667 66.133333 99.477333 101.397333 130.496 16.064 13.397333 28.117333 20.096 36.138667 20.096 10.304 0 21.077333-12.266667 21.077333-23.104 0-8.021333-6.016-27.434667-18.069333-58.24-16.576-40.256-51.84-113.962667-85.333334-141.546666-10.709333-10.026667-21.077333-15.04-31.125333-15.04-14.314667 0-40.149333 26.24-40.149333 42.154666z m45.184-433.706666c0 22.762667 8.021333 58.581333 24.106666 107.434666 14.72 47.509333 36.8 111.104 66.24 190.741334 15.146667-9.088 51.861333-4.778667 71.274667-3.008L445.738667 190.72c-18.730667-53.546667-33.472-88.341333-44.16-104.405333-8.704-14.058667-17.408-21.077333-26.112-21.077334-14.549333 0-22.08 16.426667-22.08 31.125334z m166.634666 512c6.037333 15.402667 12.373333 32.149333 19.093334 50.218666 13.376-15.402667 26.752-28.117333 40.149333-38.165333-20.416-4.074667-36.864-4.586667-59.242667-12.032z m105.429334-204.8l67.264 12.053333c30.101333-82.986667 53.205333-149.568 69.269333-199.765333 9.237333-29.994667 36.053333-98.346667 18.069333-121.472-6.08-10.666667-24.832-13.845333-46.186666 20.053333-12.714667 19.413333-27.093333 53.226667-43.178667 101.418667l-65.237333 187.733333z" fill="#111111" p-id="1219"></path></svg>